<?xml version="1.0" standalone="no"?>
<!DOCTYPE svg PUBLIC "-//W3C//DTD SVG 20010904//EN"
 "http://www.w3.org/TR/2001/REC-SVG-20010904/DTD/svg10.dtd">
<svg version="1.0" xmlns="http://www.w3.org/2000/svg"
 width="512.000000pt" height="512.000000pt" viewBox="0 0 512.000000 512.000000"
 preserveAspectRatio="xMidYMid meet">
<metadata>
Created by potrace 1.14, written by Peter Selinger 2001-2017
</metadata>
<g transform="translate(0.000000,512.000000) scale(0.100000,-0.100000)"
fill="#000000" stroke="none">
<path d="M810 5101 c-399 -85 -709 -397 -791 -798 -19 -89 -19 -157 -17 -1775
l3 -1683 22 -77 c55 -192 137 -334 272 -469 135 -134 279 -218 468 -272 l78
-22 1683 -3 c1618 -2 1686 -2 1775 17 202 41 367 130 513 275 142 142 226 287
277 480 l22 81 0 1705 0 1705 -22 81 c-51 193 -135 338 -277 480 -146 145
-311 233 -511 275 -86 18 -167 19 -1750 18 -1557 0 -1665 -2 -1745 -18z m-6
-1784 c17 -19 87 -133 155 -253 183 -322 291 -507 306 -522 10 -11 26 11 87
115 78 132 198 350 307 556 35 64 71 122 81 127 40 21 121 7 142 -24 4 -6 8
-28 8 -49 0 -66 -161 -358 -407 -737 l-113 -174 0 -282 c0 -261 -1 -283 -17
-288 -78 -22 -149 -8 -170 34 -9 18 -13 96 -13 285 l0 260 -73 110 c-155 231
-380 601 -449 738 -26 53 -28 63 -17 84 18 33 56 52 103 53 31 0 45 -6 70 -33z
m2626 7 c17 -14 121 -155 231 -313 110 -157 204 -286 209 -286 5 0 106 135
225 300 119 165 224 306 233 313 28 22 102 9 129 -23 27 -31 29 -64 7 -108
-18 -35 -157 -220 -352 -470 -116 -150 -122 -160 -109 -180 8 -12 123 -172
256 -356 132 -183 241 -340 241 -348 0 -8 -15 -30 -34 -49 -28 -28 -42 -34
-75 -34 -62 0 -92 34 -321 368 -111 160 -203 292 -205 292 -2 0 -111 -149
-241 -331 l-237 -331 -54 4 c-69 6 -98 32 -97 86 2 50 11 65 278 412 124 162
226 298 226 301 0 3 -110 156 -245 340 -135 184 -245 342 -245 352 0 11 15 34
34 53 44 44 99 47 146 8z m-424 -739 c13 -8 28 -32 35 -53 16 -54 -13 -120
-69 -157 -91 -60 -216 -56 -448 13 -164 50 -202 56 -253 42 -30 -8 -49 -22
-71 -51 -16 -22 -30 -45 -32 -51 -6 -17 -65 1 -98 29 -26 21 -30 32 -30 75 0
63 25 106 79 136 96 54 217 48 454 -23 83 -25 166 -45 184 -45 54 0 98 24 132
73 29 43 33 45 62 37 17 -5 42 -16 55 -25z"/>
</g>
</svg>
